<?xml version="1.0" encoding="UTF-8" standalone="no"?>
<svg
   width="60"
   height="60"
   viewBox="0 0 60 60"
   fill="none"
   version="1.1"
   id="svg14"
   sodipodi:docname="chatwhatsapp.svg"
   inkscape:version="1.4 (86a8ad7, 2024-10-11)"
   xmlns:inkscape="http://www.inkscape.org/namespaces/inkscape"
   xmlns:sodipodi="http://sodipodi.sourceforge.net/DTD/sodipodi-0.dtd"
   xmlns="http://www.w3.org/2000/svg"
   xmlns:svg="http://www.w3.org/2000/svg">
  <sodipodi:namedview
     id="namedview14"
     pagecolor="#ffffff"
     bordercolor="#999999"
     borderopacity="1"
     inkscape:showpageshadow="2"
     inkscape:pageopacity="0"
     inkscape:pagecheckerboard="0"
     inkscape:deskcolor="#d1d1d1"
     inkscape:zoom="8.4895833"
     inkscape:cx="-2.591411"
     inkscape:cy="14.311656"
     inkscape:window-width="1920"
     inkscape:window-height="1017"
     inkscape:window-x="-8"
     inkscape:window-y="-8"
     inkscape:window-maximized="1"
     inkscape:current-layer="g5" />
  <g
     filter="url(#filter0_d_183_1393)"
     id="g5"
     transform="translate(-18,-17)">
    <g
       filter="url(#filter1_ddd_183_1393)"
       id="g4">
      <rect
         x="18"
         y="17"
         width="60"
         height="60"
         rx="30"
         fill="#00bd7e"
         id="rect1" />
      <path
         fill-rule="evenodd"
         clip-rule="evenodd"
         d="m 48,59 c 6.3989,0 11.5862,-5.1873 11.5862,-11.5862 0,-6.3989 -5.1873,-11.5862 -11.5862,-11.5862 -6.3989,0 -11.5862,5.1873 -11.5862,11.5862 0,2.078 0.5471,4.0282 1.505,5.7145 L 36.4138,59 42.4675,57.5962 C 44.1115,58.4914 45.9964,59 48,59 Z m 0,-1.7825 c 5.4145,0 9.8037,-4.3893 9.8037,-9.8037 0,-5.4144 -4.3892,-9.8037 -9.8037,-9.8037 -5.4144,0 -9.8037,4.3893 -9.8037,9.8037 0,2.0905 0.6543,4.0282 1.7694,5.6195 l -0.8781,3.293 3.351,-0.8378 c 1.5802,1.0904 3.4962,1.729 5.5614,1.729 z"
         fill="#bfc8d0"
         id="path1" />
      <path
         d="m 57.9311,46.5862 c 0,5.4848 -4.4463,9.931 -9.9311,9.931 -2.092,0 -4.0329,-0.6468 -5.6336,-1.7514 l -3.3946,0.8486 0.8895,-3.3357 c -1.1295,-1.6119 -1.7923,-3.5748 -1.7923,-5.6925 0,-5.4848 4.4463,-9.931 9.931,-9.931 5.4848,0 9.9311,4.4462 9.9311,9.931 z"
         fill="url(#paint0_linear_183_1393)"
         id="path2"
         style="fill:url(#paint0_linear_183_1393)" />
      <path
         fill-rule="evenodd"
         clip-rule="evenodd"
         d="m 48,58.1724 c 6.3989,0 11.5862,-5.1873 11.5862,-11.5862 C 59.5862,40.1873 54.3989,35 48,35 c -6.3989,0 -11.5862,5.1873 -11.5862,11.5862 0,2.078 0.5471,4.0282 1.505,5.7145 l -1.505,5.8717 6.0537,-1.4037 c 1.644,0.8951 3.5289,1.4037 5.5325,1.4037 z m 0,-1.7825 c 5.4145,0 9.8037,-4.3893 9.8037,-9.8037 0,-5.4144 -4.3892,-9.8037 -9.8037,-9.8037 -5.4144,0 -9.8037,4.3893 -9.8037,9.8037 0,2.0905 0.6543,4.0283 1.7694,5.6195 l -0.8781,3.293 3.351,-0.8378 c 1.5802,1.0905 3.4962,1.729 5.5614,1.729 z"
         fill="#ffffff"
         id="path3" />
      <path
         d="m 45.1035,41.2069 c -0.2755,-0.5533 -0.6981,-0.5043 -1.125,-0.5043 -0.7629,0 -1.9526,0.9139 -1.9526,2.6147 0,1.3939 0.6142,2.9198 2.684,5.2023 1.9975,2.2029 4.622,3.3424 6.8009,3.3036 2.1789,-0.0388 2.6272,-1.9138 2.6272,-2.547 0,-0.2806 -0.1742,-0.4207 -0.2942,-0.4587 -0.7425,-0.3563 -2.1119,-1.0203 -2.4235,-1.1451 -0.3116,-0.1247 -0.4743,0.044 -0.5754,0.1358 -0.2826,0.2693 -0.8427,1.0629 -1.0345,1.2414 -0.1918,0.1785 -0.4777,0.0882 -0.5967,0.0207 -0.4379,-0.1757 -1.625,-0.7038 -2.5714,-1.6211 -1.1703,-1.1345 -1.239,-1.5248 -1.4595,-1.8723 -0.1764,-0.2779 -0.0469,-0.4485 0.0177,-0.523 0.2521,-0.291 0.6003,-0.7402 0.7564,-0.9634 0.1562,-0.2232 0.0322,-0.5621 -0.0422,-0.7732 -0.3198,-0.9078 -0.5908,-1.6678 -0.8112,-2.1104 z"
         fill="#ffffff"
         id="path4" />
    </g>
  </g>
  <defs
     id="defs14">
    <linearGradient
       id="paint0_linear_183_1393"
       x1="58.138"
       y1="38"
       x2="35.706001"
       y2="58.2145"
       gradientUnits="userSpaceOnUse">
      <stop
         stop-color="#5BD066"
         id="stop13" />
      <stop
         offset="1"
         stop-color="#27B43E"
         id="stop14" />
    </linearGradient>
  </defs>
</svg>
