<?xml version="1.0" encoding="UTF-8" standalone="no"?>
<svg
   width="20"
   height="20"
   viewBox="0 0 20 20"
   fill="none"
   version="1.1"
   id="svg61"
   xmlns="http://www.w3.org/2000/svg"
   xmlns:svg="http://www.w3.org/2000/svg">
  <path
     d="M 10,0 C 15.523,0 20,4.477 20,10 20,15.523 15.523,20 10,20 8.166,20 6.448,19.506 4.97,18.645 L 0.004,20 1.356,15.031 C 0.494,13.554 0,11.835 0,10 0,4.477 4.477,0 10,0 Z M 6.391,5.308 C 6.262,5.317 6.135,5.349 6.02,5.408 5.933,5.452 5.852,5.517 5.726,5.636 5.607,5.749 5.538,5.847 5.465,5.942 5.095,6.423 4.896,7.014 4.9,7.621 c 0.002,0.491 0.129,0.967 0.331,1.413 0.408,0.902 1.081,1.857 1.97,2.742 0.213,0.212 0.423,0.427 0.648,0.626 1.104,0.972 2.419,1.672 3.841,2.046 0,0 0.56,0.086 0.568,0.087 0.185,0.01 0.371,-0.004 0.556,-0.013 0.292,-0.015 0.576,-0.094 0.833,-0.231 0.166,-0.088 0.244,-0.132 0.383,-0.22 0,0 0.043,-0.028 0.125,-0.09 0.135,-0.1 0.218,-0.171 0.331,-0.288 0.082,-0.086 0.154,-0.187 0.209,-0.302 0.078,-0.163 0.156,-0.474 0.188,-0.733 0.024,-0.198 0.016,-0.306 0.014,-0.373 -0.004,-0.107 -0.093,-0.218 -0.191,-0.265 l -0.581,-0.261 c 0,0 -0.87,-0.379 -1.402,-0.621 -0.055,-0.026 -0.116,-0.037 -0.176,-0.041 -0.134,-0.008 -0.283,0.027 -0.378,0.127 -0.005,-0.002 -0.072,0.055 -0.795,0.932 -0.04,0.047 -0.134,0.151 -0.295,0.141 C 11.054,12.295 11.03,12.292 11.006,12.286 10.941,12.269 10.877,12.246 10.815,12.219 10.691,12.167 10.648,12.147 10.563,12.111 9.986,11.858 9.456,11.521 8.988,11.108 8.862,10.997 8.745,10.878 8.625,10.762 8.205,10.354 7.861,9.921 7.605,9.494 7.591,9.47 7.569,9.437 7.546,9.399 7.504,9.331 7.458,9.25 7.444,9.194 7.406,9.047 7.505,8.929 7.505,8.929 c 0,0 0.243,-0.266 0.356,-0.411 C 7.97,8.379 8.064,8.243 8.124,8.146 8.242,7.956 8.279,7.761 8.217,7.61 7.937,6.926 7.647,6.245 7.349,5.569 7.29,5.435 7.115,5.338 6.956,5.32 6.902,5.314 6.848,5.308 6.794,5.304 6.66,5.297 6.525,5.299 6.391,5.308 Z"
     fill="#f3f3f3"
     id="path20" />
  <defs
     id="defs61" />
</svg>
