<?xml version="1.0" encoding="UTF-8" standalone="no"?>
<svg
   width="19.999001"
   height="19.999001"
   viewBox="0 0 19.999001 19.999001"
   fill="none"
   version="1.1"
   id="svg61"
   xmlns="http://www.w3.org/2000/svg"
   xmlns:svg="http://www.w3.org/2000/svg">
  <path
     d="m 11.027,0 c 1.125,0.002 1.696,0.008 2.189,0.022 l 0.194,0.007 c 0.224,0.008 0.445,0.018 0.712,0.03 1.064,0.049 1.79,0.218 2.427,0.465 0.659,0.254 1.216,0.598 1.772,1.154 0.555,0.555 0.898,1.114 1.153,1.771 0.247,0.637 0.415,1.364 0.465,2.428 0.012,0.266 0.022,0.488 0.03,0.712 l 0.006,0.194 c 0.015,0.493 0.021,1.063 0.023,2.189 l 10e-4,0.745 c 0,0.091 0,0.185 0,0.282 v 0.282 0.746 c -0.002,1.125 -0.008,1.696 -0.023,2.189 L 19.97,13.41 c -0.008,0.224 -0.018,0.445 -0.031,0.712 -0.049,1.064 -0.218,1.79 -0.465,2.427 -0.254,0.659 -0.598,1.216 -1.153,1.772 -0.556,0.555 -1.115,0.898 -1.772,1.153 -0.637,0.247 -1.363,0.415 -2.427,0.465 -0.267,0.012 -0.488,0.022 -0.712,0.03 l -0.194,0.006 c -0.493,0.015 -1.064,0.021 -2.189,0.023 l -0.746,10e-4 c -0.091,0 -0.185,0 -0.282,0 H 9.717 8.971 C 7.846,19.997 7.276,19.991 6.783,19.976 L 6.589,19.97 C 6.365,19.962 6.143,19.952 5.877,19.939 4.813,19.89 4.088,19.721 3.449,19.474 2.791,19.22 2.233,18.876 1.678,18.321 1.122,17.765 0.779,17.206 0.524,16.549 0.277,15.912 0.109,15.186 0.059,14.122 0.047,13.855 0.038,13.634 0.03,13.41 L 0.024,13.216 C 0.009,12.723 0.002,12.152 0,11.027 V 8.972 C 0.002,7.846 0.008,7.276 0.022,6.783 L 0.029,6.589 C 0.037,6.365 0.047,6.143 0.059,5.877 0.108,4.812 0.277,4.087 0.524,3.449 0.778,2.791 1.122,2.233 1.678,1.678 2.233,1.122 2.792,0.779 3.449,0.524 4.087,0.277 4.812,0.109 5.877,0.059 6.143,0.047 6.365,0.038 6.589,0.03 L 6.783,0.024 C 7.276,0.009 7.846,0.002 8.971,0 Z M 9.999,4.999 c -2.763,0 -5,2.24 -5,5 0,2.763 2.24,5 5,5 2.763,0 5,-2.239 5,-5 0,-2.763 -2.239,-5 -5,-5 z m 0,2 c 1.657,0 3,1.343 3,3 0,1.657 -1.342,3 -3,3 -1.657,0 -3,-1.342 -3,-3 0,-1.657 1.343,-3 3,-3 z m 5.25,-3.5 c -0.689,0 -1.25,0.56 -1.25,1.249 0,0.69 0.56,1.25 1.25,1.25 0.689,0 1.25,-0.559 1.25,-1.25 0,-0.689 -0.561,-1.25 -1.25,-1.249 z"
     fill="#f3f3f3"
     id="path24" />
  <defs
     id="defs61" />
</svg>
