<?xml version="1.0" encoding="UTF-8" standalone="no"?>
<svg
   width="350.0376"
   height="184.42516"
   viewBox="0 0 350.0376 184.42516"
   fill="none"
   version="1.1"
   id="svg61"
   xmlns="http://www.w3.org/2000/svg"
   xmlns:svg="http://www.w3.org/2000/svg">
  <g
     clip-path="url(#clip0_458_15403)"
     id="g18"
     transform="translate(-144.38078,-151.22696)">
    <path
       d="m 482.037,179.689 c -7.13,-6.348 -16.444,-9.343 -25.55,-11.595 -10.515,-2.596 -21.213,-4.983 -32.032,-5.79 -6.377,-0.471 -12.779,-0.303 -19.092,0.703 -0.648,0.104 -2.529,0.487 -2.713,1.278 -0.184,0.79 1.521,0.519 1.865,0.471 10.594,-1.685 21.421,-0.455 31.887,1.549 5.033,0.966 10.035,2.092 15.012,3.29 4.473,1.078 8.938,2.276 13.227,3.945 4.737,1.845 9.234,4.345 13.035,7.731 0.64,0.567 2.312,0 2.993,-0.248 0.336,-0.128 2,-0.783 1.376,-1.334 z"
       fill="#f3f3f3"
       id="path6" />
    <path
       d="m 444.1,153.83 c -8.138,-2.268 -14.883,-2.587 -24.622,-2.603 -7.81,-0.008 -14.459,1.078 -22.125,2.595 -6.681,1.326 -13.187,3.626 -19.452,6.269 -15.268,6.437 -31.96,17.593 -46.715,17.593 -7.898,0 -3.497,2.731 1.8,2.467 19.013,-0.942 45.579,-18.998 62.735,-23.055 6.865,-1.621 12.643,-2.915 19.82,-3.218 7.506,-0.32 16.764,0.543 25.806,2.779 1.081,0.264 2.521,-0.08 3.281,-0.878 0.72,-0.759 0.472,-1.677 -0.52,-1.949 z"
       fill="#f3f3f3"
       id="path7" />
    <path
       d="m 155.032,325.255 c -0.056,0 -0.12,-0.008 -0.184,-0.016 -0.232,0 -0.52,0 -0.64,-0.207 -0.04,-0.072 -0.056,-0.152 -0.096,-0.216 -0.168,-0.272 -0.608,-0.128 -0.896,-0.272 -0.264,-0.135 -0.192,-0.383 -0.344,-0.575 -0.216,-0.263 -0.504,-0.351 -0.832,-0.375 -0.544,-0.048 -0.969,0.04 -1.409,0.351 -0.184,0.136 -0.648,0.703 -0.856,0.663 -0.328,-0.064 -0.664,-0.151 -0.984,-0.247 -0.08,-0.024 -0.168,-0.048 -0.232,-0.112 -0.328,-0.296 -0.064,-1.677 -0.016,-2.06 0.112,-0.863 0.272,-1.717 0.456,-2.572 0.368,-1.701 0.824,-4.52 1.192,-6.221 0.312,-1.437 0.472,-2.899 0.784,-4.336 0.337,-1.518 0.593,-3.051 0.777,-4.592 0.16,-1.382 0.64,-3.147 -0.168,-4.336 -0.425,-0.623 -0.417,-0.655 -0.32,-1.502 0.08,-0.711 0.16,-1.421 0.24,-2.124 0.152,-1.358 0.32,-2.715 0.488,-4.073 0.328,-2.651 0.688,-5.302 1.096,-7.954 0.296,-1.956 0.56,-3.913 0.928,-5.861 1.088,-5.846 1.873,-11.748 3.033,-17.577 0.312,-1.55 0.304,-3.402 0.856,-4.88 0.176,-0.463 0.824,-0.111 1.2,-0.239 0.833,-0.28 0.424,2.028 0.44,2.539 0,0.112 0.008,0.232 0.056,0.344 0.112,0.263 0.425,0.367 0.697,0.447 0.072,0.024 0.152,0.04 0.216,0.016 0.096,-0.032 0.152,-0.128 0.192,-0.216 0.208,-0.423 0.352,-0.83 0.464,-1.286 0.04,-0.167 0.088,-0.335 0.2,-0.471 0.152,-0.175 0.392,-0.239 0.616,-0.295 0.952,-0.232 2.905,-1.198 3.617,-0.431 0.136,0.143 0.224,0.343 0.256,0.622 0.2,1.821 -0.344,3.554 -0.16,5.359 0.088,0.862 0.072,1.741 -0.048,2.603 -0.024,0.176 -0.056,0.352 -0.008,0.519 0.096,0.376 0.504,0.575 0.864,0.719 0.176,-0.056 0.232,-0.263 0.264,-0.439 0.216,-1.238 0.376,-2.484 0.584,-3.721 0.104,-0.607 0.168,-1.262 0.344,-1.853 0.208,-0.703 0.184,-0.671 0.929,-0.527 0.064,0.016 0.136,0.032 0.176,0.08 0.048,0.056 0.048,0.143 0.04,0.223 -0.128,1.917 -0.208,3.873 -0.208,5.806 -0.104,1.038 -0.32,2.012 -0.36,3.075 -0.105,2.651 -0.369,5.542 -0.017,8.177 0.713,-0.255 1.417,-1.054 2.025,-1.533 0.776,-0.607 1.552,-1.214 2.337,-1.805 1.616,-1.222 3.256,-2.42 4.921,-3.578 0.336,-0.231 0.688,-0.471 1.088,-0.519 0.4,-0.048 0.872,0.152 0.976,0.551 -1.008,0.831 -2.016,1.661 -3.025,2.492 -0.848,0.695 -2.192,1.437 -2.632,2.467 -0.056,0.128 -0.096,0.296 0,0.392 0.056,0.056 0.136,0.072 0.208,0.072 1.256,0.127 2.504,-1.134 3.425,-1.821 1.896,-1.422 3.817,-2.811 5.721,-4.217 1,-0.734 2,-1.477 3.001,-2.212 0.744,-0.551 1.608,-1.445 2.552,-1.629 0.048,-0.008 0.104,-0.016 0.152,0 0.08,0.032 0.12,0.12 0.168,0.2 0.657,1.022 4.545,-2.683 5.242,-3.203 1.64,-1.229 3.312,-2.427 5.049,-3.513 2.216,-1.39 4.401,-2.548 6.985,-3.091 0.08,-0.016 0.176,-0.032 0.24,0.016 0.105,0.064 0.105,0.224 0.097,0.343 -0.024,0.464 0.056,0.927 0.232,1.358 0.2,0.495 0.528,0.934 0.656,1.454 0.36,1.533 -2.225,2.739 -3.185,3.481 -1.528,1.182 -3.009,2.42 -4.457,3.698 -0.112,0.104 -0.24,0.215 -0.264,0.367 -0.048,0.272 0.264,0.495 0.536,0.479 0.272,-0.016 0.512,-0.199 0.728,-0.367 2.729,-2.116 5.722,-3.897 8.89,-5.287 0.152,-0.064 0.336,-0.127 0.472,-0.032 0.112,0.08 0.144,0.232 0.256,0.304 0.24,0.144 0.609,-0.184 0.801,0.024 0.064,0.072 0.072,0.175 0.072,0.279 0,0.416 0,0.831 0,1.246 0,0.16 0,0.328 -0.072,0.471 -0.096,0.192 -0.304,0.296 -0.505,0.4 -4.064,2.012 -7.249,4.999 -10.842,7.666 -3.481,2.579 -6.906,5.247 -10.298,7.938 -3.393,2.691 -6.594,5.271 -9.867,7.946 4.057,8.84 11.259,20.819 21.605,35.936 v 1.797 c -0.136,0.943 -0.272,1.885 -0.408,2.827 -0.104,0.751 -0.4,1.494 -0.616,2.22 -0.048,0.16 -0.104,0.336 -0.248,0.408 -0.16,0.087 -0.352,0.016 -0.52,-0.048 -0.488,-0.2 -1.817,-1.03 -2.201,-0.24 -0.128,0.272 0,0.583 0.104,0.863 0.264,0.694 0.432,1.557 0.312,2.3 -0.112,0.654 -0.952,0.566 -1.432,0.519 -0.712,-0.072 -1.496,-0.096 -2.192,-0.232 -0.152,-0.032 -0.296,-0.072 -0.441,-0.096 -0.536,-0.08 -1.048,0.168 -1.576,0.2 -0.112,0.008 -0.232,0.016 -0.344,-0.016 -0.32,-0.096 -0.432,-0.479 -0.52,-0.799 -0.48,-1.765 -1.624,-3.338 -2.513,-4.927 -0.736,-1.326 -1.504,-2.627 -2.28,-3.929 -4.713,-7.906 -9.762,-15.612 -14.828,-23.295 l -1.8,-5.39 -4.497,0.894 c -0.184,0.04 -0.352,5.295 -0.4,5.838 -0.368,4.368 -0.88,8.752 -1.897,13.025 -0.36,1.517 -0.784,4.16 -1.36,5.614 -0.488,1.23 -1.128,3.338 -2.16,4.12 -0.585,0.448 -0.945,0.272 -1.625,0.176 -0.56,-0.072 -1.192,-0.024 -1.736,-0.144 -0.472,-0.095 -0.856,-0.327 -1.337,-0.383 z m 3.209,-58.76 c -0.392,1.414 -0.472,2.859 -0.72,4.304 -0.296,1.741 -0.512,3.49 -0.712,5.239 -0.008,0.104 -0.024,0.2 0,0.304 0.072,0.295 0.416,0.431 0.712,0.519 0.144,0.04 0.312,0.072 0.424,-0.024 0.064,-0.056 0.088,-0.144 0.112,-0.224 0.496,-1.733 0.624,-3.546 0.744,-5.334 0.112,-1.646 0.6,-3.251 0.728,-4.888 0,-0.072 0.008,-0.136 -0.016,-0.199 -0.048,-0.12 -0.192,-0.168 -0.32,-0.2 -0.272,-0.072 -0.624,-0.12 -0.8,0.096 -0.056,0.072 -0.088,0.167 -0.112,0.255 -0.016,0.048 -0.032,0.096 -0.04,0.152 z m 42.378,-11.691 c 0.112,-0.032 0.232,-0.072 0.344,-0.104 0.104,-0.032 0.216,-0.056 0.32,-0.032 0.08,0.024 0.152,0.072 0.216,0.128 0.304,0.247 0.584,0.535 0.84,0.838 -0.504,0.344 -1.016,0.695 -1.52,1.038 -0.192,0.136 -0.424,0.272 -0.648,0.208 -0.2,-0.056 -0.336,-0.256 -0.536,-0.279 -0.128,-0.016 -0.256,0.047 -0.376,0.111 -4.761,2.588 -9.122,5.71 -13.259,9.2 -0.897,0.759 -1.937,1.581 -3.105,1.446 -0.08,-0.008 -0.16,-0.024 -0.216,-0.08 -0.144,-0.144 0,-0.384 0.16,-0.519 2.857,-2.684 6.161,-4.824 9.162,-7.331 2.417,-2.013 5.617,-3.706 8.626,-4.624 z m -4.465,14.358 -3.601,2.692 -0.896,0.894 v 0.894 h 0.896 l 3.601,-2.691 0.896,-0.894 v -0.895 z"
       fill="#f3f3f3"
       id="path8" />
    <path
       d="m 261.137,290.005 c 0.28,-1.269 0.224,-2.587 0.208,-3.889 -0.016,-1.229 -0.04,-2.395 -0.24,-3.601 0.328,0 0.648,0.088 0.92,0.271 0.056,0.04 0.112,0.08 0.152,0.128 0.048,0.056 0.072,0.12 0.096,0.192 0.513,1.277 0.465,2.683 0.585,4.025 0.048,0.551 0,1.134 0,1.693 0,0.463 -0.056,0.918 -0.128,1.373 -0.465,2.987 -1.665,5.902 -2.793,8.681 -0.872,2.14 -1.809,4.264 -2.777,6.365 -0.568,1.237 -1.144,2.459 -1.728,3.689 -0.296,0.615 -1.761,2.675 -1.392,3.322 0.072,0.12 0.192,0.232 0.192,0.375 0,0.112 -0.072,0.208 -0.136,0.296 -1.161,1.437 -2.393,2.819 -3.681,4.145 -2.433,2.507 -5.082,4.815 -7.89,6.899 -1.376,1.023 -2.713,1.981 -4.233,2.772 -2.593,1.349 -5.481,2.236 -8.402,2.483 -2.705,0.224 -5.609,-0.263 -8.242,-0.83 -4.729,-1.015 -9.226,-3.131 -12.619,-6.637 -2.601,-2.691 -4.417,-6.037 -5.585,-9.575 -1.057,-1.581 -2.241,-3.098 -2.985,-4.855 -0.096,-0.216 -0.184,-0.439 -0.184,-0.679 0,-0.695 0.624,-0.894 0.496,-1.741 -0.096,-0.623 -0.352,-1.214 -0.456,-1.837 -0.304,-1.852 -0.528,-3.721 -0.504,-5.598 0.016,-1.253 0.44,-2.611 0.84,-3.809 1.36,-4.049 3.457,-7.81 5.809,-11.364 2.409,-3.641 4.681,-7.331 7.41,-10.757 0.224,-0.287 0.472,-0.575 0.816,-0.703 0.344,-0.127 0.801,0 0.905,0.352 0.104,0.343 -1.585,2.196 -1.833,2.539 -0.608,0.839 -1.224,1.669 -1.824,2.516 -1.233,1.733 -2.425,3.498 -3.465,5.358 -2.025,3.626 -4.113,7.14 -5.361,11.157 -0.088,0.279 -0.104,0.591 0,0.862 0.104,0.272 0.376,0.495 0.672,0.495 0.08,0 0.16,-0.008 0.224,-0.056 0.104,-0.064 0.152,-0.191 0.192,-0.303 0.648,-1.773 1.192,-3.426 2.048,-5.127 0.721,-1.422 1.505,-2.811 2.281,-4.209 0.632,-1.142 0.952,-2.276 1.696,-3.386 1.729,-2.595 3.641,-5.079 5.642,-7.474 1.952,-2.34 3.993,-4.608 6.089,-6.812 1.864,-1.957 4.001,-3.426 6.073,-5.175 0.048,-0.04 0.096,-0.08 0.104,-0.136 0.008,-0.048 -0.008,-0.096 -0.032,-0.144 -0.128,-0.223 -0.416,-0.319 -0.68,-0.303 -0.264,0.016 -0.504,0.136 -0.736,0.247 -1.704,0.831 -3.441,1.677 -4.841,2.955 -0.24,0.224 -0.504,0.471 -0.832,0.455 -0.24,-0.119 -0.32,-0.439 -0.248,-0.694 0.072,-0.256 0.24,-0.472 0.408,-0.671 1.6,-1.925 3.241,-2.867 5.657,-3.634 3.793,-1.198 7.786,-1.781 11.715,-2.276 3.417,-0.431 7.562,0.671 10.77,1.741 1.777,0.599 3.505,1.342 5.17,2.212 0.984,0.519 2.264,1.15 2.968,2.021 0.608,0.758 -0.056,1.006 0,1.82 0.064,0.943 1.249,2.149 1.777,2.947 0.752,1.126 1.304,2.364 1.872,3.594 0.504,1.086 1.016,2.515 0.992,3.729 -0.48,0.016 -0.968,-0.128 -1.36,-0.391 -0.32,-0.216 -0.56,-1.43 -0.712,-1.813 -0.16,-0.407 -0.24,-0.838 -0.36,-1.254 -0.168,-0.575 -0.512,-2.028 -1.312,-2.028 -0.377,0 -0.921,-0.136 -1.089,0.247 -0.168,0.384 0.384,1.574 0.472,1.941 0.4,1.685 0.745,3.386 1.049,5.095 0,1.038 0.376,2.188 0.528,3.218 0.16,1.078 0.304,2.165 0.416,3.243 0.112,1.078 0.208,2.244 0.264,3.378 0.04,0.926 -0.144,1.788 -0.224,2.715 -0.016,0.152 -0.024,0.319 0.048,0.455 0.056,0.096 0.16,0.168 0.256,0.224 0.24,0.143 0.56,0.255 0.784,0.088 0.152,-0.104 0.208,-0.296 0.248,-0.48 0,-0.032 0.016,-0.056 0.016,-0.087 z m -46.939,-4.823 c -0.032,0.048 -0.056,0.096 -0.088,0.144 -1.768,2.978 -3.249,6.396 -3.897,9.79 -0.04,0.192 -0.072,0.392 -0.008,0.575 0.064,0.184 0.232,0.328 0.424,0.368 0.192,0.04 0.4,-0.032 0.528,-0.184 0.121,-0.136 0.161,-0.311 0.209,-0.487 0.36,-1.437 0.784,-2.867 1.136,-4.304 0.224,-1.015 0.656,-1.845 1.12,-2.78 0.296,-0.598 0.584,-1.205 0.904,-1.796 0.208,-0.392 1.001,-1.15 0.76,-1.613 -0.12,-0.232 -0.448,-0.264 -0.672,-0.144 -0.176,0.096 -0.304,0.255 -0.408,0.431 z m 19.941,-12.418 c -0.648,0.447 -1.272,0.934 -1.865,1.453 -1.76,1.542 -3.296,3.394 -5.369,4.488 -0.592,0.312 -1.216,0.559 -1.824,0.847 -0.192,0.088 -0.456,0.511 -0.672,0.679 -0.232,0.175 -0.457,0.375 -0.673,0.575 -0.48,0.447 -0.92,0.942 -1.328,1.461 -1.016,1.27 -1.848,2.675 -2.6,4.113 -2.921,5.558 -4.778,11.691 -6.442,17.721 0,4.791 2.697,8.984 8.098,12.577 h 0.896 c 6.57,0 14.067,-6.884 22.501,-20.659 3.001,-6.557 4.497,-11.34 4.497,-14.375 v -7.187 c 0,-0.096 -0.008,-0.192 -0.032,-0.28 -0.352,-1.645 -3.072,-2.204 -4.393,-2.523 -1.584,-0.383 -3.208,-0.535 -4.801,-0.855 -1.704,-0.343 -3.337,0.336 -4.785,1.19 -0.416,0.248 -0.824,0.511 -1.216,0.783 z m 15.267,17.888 c -0.112,0.12 -0.184,0.272 -0.256,0.416 -1.2,2.563 -2.016,5.27 -3.304,7.794 -1.297,2.539 -2.865,4.935 -4.665,7.147 -0.209,0.256 -0.425,0.527 -0.441,0.855 -0.016,0.327 0.296,0.678 0.601,0.567 0.128,-0.048 0.216,-0.152 0.304,-0.256 1.408,-1.685 2.712,-3.45 3.905,-5.287 0.208,-0.319 0.424,-0.654 0.744,-0.87 0.208,-0.136 0.44,-0.208 0.664,-0.311 1.36,-0.607 1.8,-1.781 2.312,-3.051 0.585,-1.438 1.169,-2.875 1.921,-4.233 0.064,-0.119 0.128,-0.239 0.128,-0.375 0,-0.2 -0.168,-0.351 -0.288,-0.511 -0.248,-0.311 -0.384,-0.703 -0.512,-1.086 -0.064,-0.192 -0.128,-0.383 -0.192,-0.575 -0.048,-0.144 -0.104,-0.288 -0.224,-0.383 -0.168,-0.128 -0.416,-0.08 -0.585,0.048 -0.04,0.031 -0.072,0.055 -0.104,0.095 z"
       fill="#f3f3f3"
       id="path9" />
    <path
       d="m 317.599,269.641 c -0.104,0.04 -0.216,0.064 -0.328,0.064 -0.393,0.016 -5.01,0.127 -5.002,0.087 l -0.056,0.895 c 1.801,0 2.665,0.599 2.593,1.797 0,-0.056 -4.297,0.215 -4.689,0.255 -1.561,0.176 -3.105,0.439 -4.633,0.791 -3.041,0.711 -5.994,1.789 -8.786,3.194 -2.017,1.014 -3.945,2.196 -5.77,3.514 -0.952,0.687 -1.872,1.405 -2.768,2.148 -0.808,0.679 -1.985,1.446 -2.513,2.372 -0.016,0.032 -0.032,0.064 -0.024,0.096 0.008,0.032 0.04,0.048 0.064,0.064 0.784,0.463 1.817,0.591 2.697,0.862 0.656,0.2 1.328,0.375 1.968,0.607 1.393,0.511 2.761,1.094 4.097,1.733 2.641,1.278 5.153,2.811 7.49,4.584 2.376,1.805 4.561,3.841 6.545,6.069 1.025,1.15 2.001,2.348 2.913,3.594 0.472,0.631 0.936,1.278 1.368,1.932 0.489,0.735 0.873,2.197 0.641,3.051 -0.336,1.254 -0.905,2.492 -1.473,3.65 -1.16,2.363 -2.648,4.551 -4.337,6.564 -2.128,2.539 -4.569,4.807 -7.161,6.86 -0.713,0.567 -1.449,1.118 -2.185,1.661 -0.648,0.471 -1.168,0.687 -1.896,0.966 -1.609,0.615 -3.257,1.246 -4.962,1.565 -0.72,0.136 -1.336,0.2 -2.056,0.432 -0.856,0.271 -1.736,0.495 -2.617,0.662 -0.04,0 -0.072,0.016 -0.104,0.04 -0.032,0.032 -0.04,0.08 -0.04,0.128 -0.016,0.176 -0.024,0.36 -0.04,0.535 0,0.048 0,0.104 0.024,0.144 0.024,0.032 0.072,0.048 0.112,0.056 0.889,0.247 2.105,-0.407 3.001,-0.591 0.28,-0.056 0.768,-0.304 1.008,-0.256 0.416,0.08 1.321,-0.423 1.305,0.24 -0.016,0.543 -1.033,0.878 -1.409,1.07 -1.344,0.671 -2.744,1.222 -4.169,1.685 -1.664,0.535 -3.352,0.958 -5.065,1.326 -1.072,0.231 -2.024,0.455 -3.113,0.383 -1.088,-0.072 -2.112,-0.088 -3.16,-0.208 -0.032,0 -0.064,0 -0.088,-0.008 -1.321,-0.151 -2.657,-0.479 -3.761,-1.205 -0.056,-0.04 -0.12,-0.08 -0.152,-0.144 -0.04,-0.072 -0.032,-0.16 0,-0.24 0.08,-0.231 0.344,-0.367 0.584,-0.383 0.24,-0.016 0.488,0.064 0.728,0.136 2.833,0.838 6.121,0.718 8.938,-0.048 0.264,-0.072 0.544,-0.104 0.776,-0.232 0.208,-0.12 0.632,-0.774 0.416,-1.006 -0.144,-0.152 -1.648,0.16 -1.904,0.184 -0.672,0.056 -1.352,0.095 -2.025,0.111 -2.928,0.048 -6.009,-0.934 -8.754,-1.924 -0.368,-0.136 -0.744,-0.28 -1.024,-0.551 0.04,-0.376 0.464,-0.559 0.704,-0.855 0.296,-0.359 0.288,-0.902 0.072,-1.317 -0.392,-0.751 -1.288,-0.967 -1.888,-1.526 -0.552,-0.511 -1.008,-1.11 -1.368,-1.773 -0.745,-1.381 -1.241,-3.114 -1.041,-4.711 0.176,-1.414 1.289,-2.955 2.897,-2.867 0.512,0.032 0.848,0.303 1.256,0.583 0.248,0.176 0.969,0.878 1.273,0.878 h 1.8 c 2.113,-0.327 4.209,-0.718 6.29,-1.19 5.009,-1.142 10.234,-2.731 14.427,-5.813 1.504,-1.11 2.865,-2.436 3.849,-4.033 0.448,-0.719 0.816,-1.494 1.088,-2.3 0.24,-0.727 0.728,-1.965 0.344,-2.667 -0.36,-0.679 -1.272,-0.919 -1.928,-1.238 -0.809,-0.392 -1.617,-0.783 -2.425,-1.158 -1.36,-0.631 -2.737,-1.23 -4.137,-1.773 -0.904,-0.351 -1.864,-0.599 -2.801,-0.871 -0.608,-0.175 -1.808,-0.838 -2.384,-0.455 -0.16,0.112 -0.288,0.272 -0.456,0.36 -0.168,0.095 -0.368,0.111 -0.568,0.127 -0.216,0.016 -0.44,0.032 -0.656,-0.024 -0.465,-0.119 -0.929,-0.606 -1.409,-0.798 -0.768,-0.312 -1.512,-0.735 -2.272,-1.022 -0.809,-0.312 -1.897,-0.288 -2.745,-0.232 -0.312,0.024 -0.624,0.056 -0.936,0.048 -1.056,-0.048 -1.993,-0.663 -2.865,-1.254 -2.016,-1.365 -3.481,-3.034 -5.033,-4.887 -0.704,-0.847 -1.368,-1.749 -1.824,-2.755 -0.209,-0.455 -0.777,-1.709 -0.489,-2.212 1.793,-3.195 3.577,-6.389 5.37,-9.591 0.488,-0.879 0.936,-1.773 1.576,-2.548 1.072,-1.278 2.449,-2.252 3.809,-3.202 0.2,-0.144 0.464,-0.288 0.688,-0.176 0.16,0.088 0.232,0.28 0.368,0.399 0.176,0.152 0.448,0.136 0.656,0.04 0.825,-0.399 1.601,-1.19 2.321,-1.749 0.872,-0.686 1.752,-1.365 2.624,-2.052 1.393,-1.094 2.745,-2.388 4.241,-3.338 1.337,-0.847 2.745,-1.653 4.177,-2.348 2.969,-1.453 6.21,-2.452 9.531,-2.523 0.48,-0.008 0.96,0 1.448,0 1.352,0.024 2.721,0.095 4.073,0.087 0.376,0 0.736,-0.151 1.016,0.152 0.376,0.407 0.232,0.791 0.896,0.974 0.297,0.08 0.609,0.128 0.865,0.288 0.272,0.168 0.568,0.751 0.448,1.07 -0.216,0.583 -1.641,0.216 -2.113,0.2 -0.952,-0.04 -1.912,-0.064 -2.872,-0.024 -1.881,0.072 -3.769,0.375 -5.482,1.19 -0.264,0.127 -0.528,0.263 -0.72,0.487 -0.192,0.223 -0.296,0.535 -0.192,0.814 1.024,0.032 2.001,-0.407 2.977,-0.718 2.584,-0.831 5.449,-0.847 8.074,-0.2 1.336,0.335 2.64,0.854 3.793,1.613 1.288,0.839 1.984,1.797 2.768,3.075 l 0.296,0.479 c 0.352,0.575 0.712,1.158 1.009,1.765 0.224,0.455 0.408,0.918 0.6,1.389 0.072,0.184 0.144,0.384 0.072,0.567 -0.048,0.128 -0.16,0.208 -0.28,0.264 z m -36.601,10.908 c -0.088,0.128 -0.168,0.248 -0.224,0.384 -0.032,0.072 -0.064,0.151 -0.048,0.231 0.168,0.671 2.353,-0.998 2.697,-1.214 0.896,-0.559 1.792,-1.118 2.688,-1.677 2.049,-1.269 4.089,-2.547 6.138,-3.817 1.904,-1.19 3.985,-2.092 6.097,-2.851 0.952,-0.343 1.913,-0.655 2.833,-1.054 1.032,-0.439 2.296,-0.519 3.385,-0.807 0.216,-0.055 0.432,-0.111 0.608,-0.247 0.176,-0.136 0.304,-0.351 0.256,-0.567 -0.024,-0.12 -0.096,-0.232 -0.112,-0.351 -0.016,-0.168 0.072,-0.328 0.056,-0.496 -0.016,-0.183 -0.168,-0.335 -0.344,-0.399 -0.176,-0.064 -0.36,-0.072 -0.544,-0.064 -0.193,0 -0.385,0.016 -0.569,0.032 -1.704,0.136 -3.112,0.958 -4.681,1.597 -1.664,0.679 -3.312,1.406 -4.929,2.196 -3.225,1.582 -6.337,3.402 -9.21,5.575 -0.784,0.591 -1.552,1.213 -2.289,1.86 -0.544,0.479 -1.36,1.038 -1.816,1.661 z m 21.245,36.927 c -0.176,0.056 -0.328,0.128 -0.4,0.168 -0.456,0.263 -0.816,0.671 -1.208,1.022 -0.921,0.831 -1.881,1.621 -2.865,2.38 -1.248,0.966 -2.489,2.028 -3.929,2.691 -1.016,0.463 -2.072,0.471 -3.089,0.823 -0.584,0.199 -0.872,0.83 -1.104,1.397 0.2,0.184 0.512,0.136 0.784,0.088 2.009,-0.415 4.041,-0.839 5.85,-1.805 2.768,-1.501 4.449,-4.113 6.545,-6.341 0.048,-0.056 0.104,-0.111 0.12,-0.191 0.072,-0.408 -0.352,-0.352 -0.696,-0.24 z"
       fill="#f3f3f3"
       id="path10" />
    <path
       d="m 331.874,331.732 c -0.336,-0.815 -0.656,-1.629 -0.944,-2.468 -0.353,-1.022 -0.609,-1.892 -0.729,-2.962 -0.064,-0.583 -0.296,-1.11 -0.32,-1.709 -0.032,-0.671 -0.032,-1.342 -0.04,-2.021 -0.016,-1.333 0,-2.659 0.056,-3.993 0.136,-3.913 0.424,-7.826 0.913,-11.723 0.464,-3.705 0.576,-7.483 0.84,-11.212 0.048,-0.663 0.096,-1.334 0.336,-1.949 0.24,-0.615 0.712,-1.182 1.344,-1.365 0.24,-0.719 0.4,-1.462 0.568,-2.204 0.544,-2.508 0.24,-0.791 0.664,-3.315 0.705,-4.208 1.153,-8.449 1.697,-12.689 0.088,-0.711 0.496,-1.517 -0.416,-1.749 -1.209,-0.303 -2.633,-0.2 -3.873,-0.216 -3.953,-0.048 -7.906,0.096 -11.843,0.44 -1.152,0.103 -2.849,0.351 -3.497,-0.943 -0.048,-0.104 0.08,-0.191 0.192,-0.223 0.344,-0.112 0.68,-0.224 1.024,-0.328 0.377,-0.12 0.753,-0.239 1.137,-0.271 0.448,-0.04 0.904,0.04 1.352,0.08 0.872,0.071 1.72,-0.104 2.577,-0.096 0.96,0.016 1.928,-0.088 2.888,-0.104 1.929,-0.032 3.857,0 5.786,0 h 2.824 c 0.432,0 1.641,0.192 1.953,-0.12 0.44,-0.439 0.16,-1.813 0.136,-2.372 0,-0.08 -0.016,-0.175 -0.088,-0.207 -0.04,-0.016 -0.088,-0.016 -0.136,-0.008 -1.721,0.231 -3.425,0.463 -5.145,0.671 -1.473,0.183 -2.953,0.367 -4.425,0.551 -1.649,0.207 -3.361,0.519 -4.978,-0.072 -0.232,-0.088 -0.456,-0.184 -0.696,-0.232 -0.216,-0.04 -0.44,-0.024 -0.664,0 -1.624,0.12 -3.177,0.495 -4.777,0.759 -0.76,0.128 -0.992,-0.032 -1.648,-0.471 -0.465,-0.312 -0.993,-0.551 -1.449,-0.839 -0.896,-0.567 -0.064,-1.925 0.104,-2.731 0.04,-0.208 0.528,-0.615 0.68,-0.799 0.264,-0.327 0.553,-0.639 0.745,-1.014 -0.673,-0.727 -2.145,-0.639 -1.833,-1.98 0.288,-1.246 1.529,-2.133 2.649,-2.596 2.504,-1.046 5.425,-1.118 8.098,-1.118 0.184,0 0.368,-0.016 0.552,-0.024 2.2,-0.08 4.401,-0.16 6.601,-0.247 3.809,-0.144 7.618,-0.28 11.427,-0.424 4.305,-0.159 8.61,-0.319 12.907,-0.479 3.681,-0.136 7.362,-0.271 11.043,-0.407 l 3.777,-0.136 c 1.592,-0.056 3.264,-0.231 4.657,0.711 0.528,0.359 0.704,1.757 -0.168,1.813 -0.537,0.04 -2.881,-0.184 -2.001,0.902 0.656,0.807 2.025,1.406 1.192,2.627 -1.064,1.566 -3.056,2.34 -4.809,2.812 -2.968,0.798 -6.113,0.934 -9.178,0.934 l -6.297,0.894 c -0.296,0.879 -0.64,1.757 -0.825,2.668 -0.016,0.071 -0.024,0.143 0,0.215 0.04,0.104 0.152,0.152 0.232,0.224 0.201,0.183 0.185,0.495 0.137,0.758 -0.281,1.582 -0.841,3.139 -1.209,4.712 -0.872,3.777 -1.616,7.587 -2.336,11.396 -1.057,5.622 -1.193,7.036 -2.153,12.674 -0.664,3.937 -1.44,7.858 -1.84,11.811 -0.08,0.822 -0.256,1.629 -0.408,2.435 -0.496,2.644 -0.784,5.319 -0.849,8.002 -0.032,1.334 -0.104,2.763 0.073,4.089 0.176,1.326 0.504,2.532 0.792,3.769 0.224,0.975 0.448,1.949 0.672,2.923 0.112,0.479 0.624,1.733 0.208,2.077 -0.24,-0.08 -0.4,-0.128 -0.664,-0.128 -1.633,0 -2.401,-3.466 -2.649,-4.576 -0.656,-2.979 -0.656,-6.213 -0.288,-9.232 0.192,-1.597 0.112,-3.202 0.216,-4.815 0.016,-0.296 0.04,-0.607 -0.08,-0.887 -0.12,-0.279 -0.408,-0.503 -0.704,-0.439 -0.512,0.575 0,1.549 -0.368,2.228 -0.352,0.639 -1.216,0.855 -1.585,1.517 -0.328,0.591 -0.352,1.294 -0.36,1.973 -0.016,3.194 0.32,6.301 0.721,9.463 0.12,0.966 0.24,1.933 0.36,2.891 0.056,0.423 0.056,0.855 0.072,1.286 0.016,0.311 0.176,0.902 0.016,1.182 -0.304,0.543 -1.401,0.271 -1.865,0.151 -0.64,-0.167 -1.512,-1.134 -2.056,-1.541 l -1.337,-0.998 -0.896,0.894 c -0.312,0.328 -1.04,-0.255 -1.152,-0.511 -0.24,-0.535 -0.456,-1.078 -0.68,-1.613 z m 1.864,-26.633 c -0.104,0.527 -0.04,1.094 -0.072,1.669 -0.016,0.208 -0.024,0.407 -0.04,0.615 -0.016,0.288 -0.04,0.583 -0.056,0.871 -0.064,1.014 -0.304,1.932 -0.416,2.914 -0.128,1.23 -0.224,2.46 -0.336,3.698 -0.28,3.058 -0.616,6.109 -0.76,9.176 -0.024,0.423 -0.008,0.918 0.32,1.174 0.4,0.311 1.024,0.055 1.28,-0.376 0.256,-0.431 0.248,-0.966 0.24,-1.469 -0.024,-1.454 0,-2.923 0.296,-4.345 0.104,-0.503 0.248,-0.99 0.336,-1.493 0.08,-0.447 0.112,-0.902 0.144,-1.357 0.2,-2.612 0.393,-5.215 0.593,-7.827 0.096,-1.237 -0.369,-2.236 -0.28,-3.45 0.04,-0.543 -0.056,-1.173 -0.529,-1.437 -0.456,0.447 -0.608,1.038 -0.72,1.645 z m 32.432,-46.046 c -1.889,0.063 -3.753,0.263 -5.634,0.582 -0.056,0.008 -0.12,0.024 -0.144,0.072 -0.024,0.032 -0.024,0.08 -0.016,0.12 0.024,0.328 0.08,0.719 0.385,0.863 0.16,0.071 0.344,0.056 0.52,0.032 1.288,-0.152 2.592,-0.2 3.897,-0.136 0.768,0.04 1.552,0.112 2.304,-0.064 0.16,-0.04 0.328,-0.096 0.424,-0.224 0.064,-0.088 0.088,-0.207 0.176,-0.287 0.08,-0.064 0.192,-0.08 0.296,-0.088 0.264,-0.024 1.641,0.064 1.529,-0.471 -0.04,-0.216 -0.24,-0.376 -0.456,-0.431 -0.585,-0.152 -1.433,0.008 -2.041,0.008 -0.416,0 -0.824,0 -1.232,0.016 z"
       fill="#f3f3f3"
       id="path11" />
    <path
       d="m 415.061,258.111 c 0.056,0.016 0.112,0.032 0.168,0.048 0.601,0.199 1.153,0.71 1.681,1.078 0.952,0.471 2.608,1.349 2.328,2.579 -0.304,1.35 -0.904,2.763 -1.632,3.937 -1.216,1.965 -2.801,2.795 -5.057,2.899 l -23.51,1.054 -0.104,1.797 c 0,0.096 2.577,0.112 2.785,0.112 2.232,0.008 4.473,-0.695 6.657,-0.272 0.209,0.04 0.425,0.096 0.569,0.256 0.296,0.319 0.288,0.583 0.728,0.703 0.272,0.072 0.624,0.032 0.904,0.048 0.432,0.024 0.944,-0.048 1.368,-0.112 0.728,-0.112 1.401,-0.112 2.145,-0.096 0.856,0.024 1.72,0.04 2.536,-0.216 0.456,-0.143 0.969,-0.367 1.377,-0.119 0.136,0.079 0.24,0.199 0.336,0.319 0.176,0.216 0.36,0.431 0.536,0.647 -1.312,0.503 -3.097,0.407 -4.481,0.551 -2.081,0.216 -4.161,0.431 -6.242,0.647 -3.352,0.343 -6.697,0.695 -10.05,1.038 -0.016,0 -0.344,0.024 -0.344,0.032 l -1.64,11.627 0.896,0.056 c 2.68,-0.215 5.361,-0.431 8.05,-0.647 l 13.067,-1.046 c 0.568,-0.048 1.144,-0.112 1.72,-0.136 0.424,-0.016 0.832,0.056 1.256,0.04 0.841,-0.024 0.769,0.304 1.185,0.903 0.328,0.471 0.712,0.559 0.024,0.774 -0.544,0.176 -1.145,0.248 -1.697,0.376 -0.056,0.016 -0.12,0.024 -0.16,0.072 -0.04,0.048 -0.04,0.111 -0.048,0.167 -0.016,0.264 -0.032,0.527 -0.04,0.791 0,0.136 5.257,-0.072 5.674,-0.064 0.12,0 0.24,0 0.352,0.056 0.48,0.24 0.264,1.302 0.12,1.701 -0.256,0.703 -0.84,1.262 -1.417,1.709 -1.264,0.982 -2.784,1.629 -4.273,2.18 -5.265,1.941 -10.938,2.851 -16.467,3.666 -1.185,0.175 -2.425,0.463 -3.617,0.503 -1.289,0.048 -2.577,0.088 -3.865,0.135 -0.976,0.032 -1.953,0.072 -2.929,0.104 -0.512,0.016 -2.224,-0.159 -2.481,0.344 -0.096,0.183 -0.032,0.415 0.024,0.615 0.473,1.78 -0.448,3.585 -0.96,5.35 -0.512,1.749 -0.632,3.594 -1.2,5.319 -0.064,0.207 -0.16,0.431 -0.352,0.527 -0.128,0.064 -0.28,0.064 -0.424,0.08 -0.328,0.04 -0.728,0.175 -0.928,-0.08 -0.184,-0.24 0,-0.575 0.08,-0.871 0.104,-0.367 0.032,-0.75 -0.016,-1.126 -0.064,-0.511 0.2,-2.02 -0.2,-2.395 -0.08,-0.08 -0.2,-0.088 -0.313,-0.088 -0.208,-0.008 -0.416,-0.016 -0.624,-0.024 -0.088,0 -0.192,0 -0.264,0.048 -0.088,0.064 -0.12,0.175 -0.136,0.271 -0.296,1.318 -0.424,2.628 -0.608,3.961 -0.104,0.759 -0.184,1.525 -0.192,2.292 -0.008,0.767 0.16,1.462 0.16,2.18 0.008,0.072 0.024,0.144 0.064,0.2 0.192,0.271 1.729,-0.152 2.041,-0.192 0.864,-0.112 1.728,-0.223 2.6,-0.335 1.737,-0.216 3.465,-0.423 5.201,-0.623 3.473,-0.399 6.946,-0.751 10.427,-1.046 4.825,-0.407 9.682,-0.727 14.523,-0.647 1.385,0.024 2.569,0.032 3.921,0.399 0.576,0.16 1.152,0.28 1.729,0.431 0.496,0.128 1.104,0.056 1.408,0.536 0.24,0.375 0.416,1.549 -0.192,1.724 -0.056,0.016 -0.112,0.008 -0.168,0 -0.768,-0.079 -1.585,-0.247 -2.353,-0.055 -0.032,0.008 -0.072,0.016 -0.088,0.047 -0.024,0.032 -0.024,0.08 -0.016,0.12 0.008,0.088 0.024,0.168 0.032,0.256 0.008,0.08 0.024,0.168 0.08,0.231 0.056,0.064 0.152,0.088 0.24,0.104 0.24,0.04 0.488,0.056 0.729,0.048 1.072,-0.016 0.96,1.302 0.824,2.037 -0.216,1.134 -0.913,1.892 -1.993,2.268 -1.744,0.614 -3.585,0.894 -5.425,1.006 -0.904,0.056 -1.8,0.056 -2.705,0.064 -0.424,0 -0.936,-0.112 -1.144,0.383 -0.072,0.184 -0.072,0.383 -0.032,0.575 0.032,0.136 0.08,0.271 0.176,0.367 0.296,0.272 1.304,0.064 1.688,0.064 0.673,0 1.345,0.016 2.009,0.064 1.16,0 2.377,0.224 3.545,0.288 0.056,0 0.104,0 0.152,0.032 0.152,0.079 0.136,0.311 0.056,0.463 -0.08,0.151 -0.184,0.327 -0.128,0.487 0.04,0.112 0.16,0.223 0.104,0.335 -0.024,0.04 -0.064,0.064 -0.104,0.08 -1.16,0.599 -2.521,0.663 -3.801,0.847 -1.528,0.223 -3.049,0.447 -4.577,0.67 -4.049,0.591 -8.09,1.182 -12.139,1.773 -4.129,0.607 -8.266,1.206 -12.395,1.813 -2.729,0.399 -5.449,0.799 -8.178,1.198 -0.344,0.048 -0.76,0.184 -1.112,0.16 l -0.896,-0.056 c -2.897,-0.631 -4.345,-1.565 -4.345,-2.803 v -0.16 c 0.072,-1.254 0.056,-2.571 0.248,-3.801 0.488,-3.115 0.976,-6.229 1.472,-9.344 0.016,-0.112 0.04,-0.231 0.112,-0.319 0.064,-0.072 0.152,-0.112 0.248,-0.144 0.512,-0.168 1.088,-0.144 1.577,0.08 -0.136,1.038 -0.184,2.164 -0.449,3.178 -0.248,0.959 -0.544,1.917 -0.792,2.883 0.296,0 0.584,-0.056 0.848,-0.191 1.049,-0.512 1.369,-1.813 1.577,-2.955 0.184,-1.022 0.376,-2.045 0.56,-3.067 0.208,-1.158 0.424,-2.316 0.544,-3.49 0.096,-0.91 0.144,-1.836 0.128,-2.755 -0.008,-0.798 0.152,-1.573 0.16,-2.372 0,-0.391 -0.08,-0.894 -0.464,-0.974 -0.232,-0.056 -0.48,0.096 -0.608,0.304 -0.128,0.207 -0.176,0.447 -0.216,0.686 -0.224,1.238 -0.504,2.476 -0.848,3.69 -0.168,0.583 -0.336,1.174 -0.544,1.749 -0.153,0.431 -0.217,0.974 -0.457,1.357 -0.216,0.344 -0.68,0.567 -1.032,0.368 -0.432,-0.24 -0.4,-0.855 -0.312,-1.342 0.224,-1.206 0.44,-2.404 0.664,-3.61 0.864,-4.719 1.737,-9.447 2.929,-14.095 0.176,-0.67 0.528,-1.653 0.408,-2.363 -0.064,-0.368 -0.376,-0.543 -0.496,-0.871 -0.12,-0.327 -0.016,-0.655 0.024,-0.974 0.104,-0.799 0.208,-1.597 0.312,-2.396 0.288,-2.252 0.584,-4.504 0.872,-6.764 l 0.424,-3.266 c 0.152,-1.174 0.472,-2.244 0.696,-3.402 0.825,-4.233 1.601,-8.457 2.361,-12.714 0.136,-0.766 -0.328,-2.308 0.608,-2.555 0.688,-0.184 1.673,0 2.377,0.032 0.792,0.04 1.584,0.12 2.368,0.207 0.969,0.112 1.929,0.128 2.905,0.208 1.928,-0.032 3.849,-0.072 5.777,-0.104 l 12.179,-0.223 c 3.633,-0.064 7.266,-0.136 10.899,-0.2 0.864,-0.016 1.864,-0.152 2.72,0.08 z"
       fill="#f3f3f3"
       id="path12" />
    <path
       d="m 437.995,258.492 c 0.096,0.032 0.2,0.072 0.296,0.136 0.256,0.16 0.48,0.415 0.712,0.607 l 2.168,1.853 c 0.712,0.535 1.369,1.166 2.041,1.749 0.312,0.263 1.232,1.421 1.656,0.695 0.16,-0.703 -0.36,-1.446 -0.152,-2.133 0.432,-0.127 0.872,-0.231 1.312,-0.311 0.257,-0.048 0.553,-0.072 0.761,0.088 0.096,0.08 0.16,0.183 0.224,0.295 0.92,1.597 1.48,3.394 2.144,5.111 0.344,0.887 0.688,1.773 1.04,2.659 l 0.521,1.334 c 0.136,0.359 0.52,0.95 0.52,1.334 1.624,4.168 3.248,8.345 4.873,12.514 0.92,2.355 1.88,4.767 2.832,7.139 0.937,2.324 2.105,4.656 2.753,7.075 0.024,0.096 0.048,0.2 0,0.288 -0.12,0.232 -0.528,0.064 -0.72,0.247 -0.048,0.04 -0.096,0.112 -0.152,0.096 -0.032,-0.008 -0.048,-0.04 -0.064,-0.064 -0.496,-0.766 -0.872,-1.605 -1.112,-2.483 -0.048,-0.168 -0.088,-0.336 -0.184,-0.479 -0.264,-0.384 -0.441,-0.567 -0.601,-0.999 -0.144,-0.399 -0.336,-0.846 -0.536,-1.221 -0.36,-0.679 -0.536,-1.47 -0.864,-2.165 -0.376,-0.814 -0.808,-1.605 -1.096,-2.459 -0.072,-0.224 -0.08,-0.903 -0.328,-1.014 -0.28,-0.128 -0.96,0.447 -1.112,0.654 -0.185,0.248 -0.04,0.599 0.096,0.871 1.528,2.931 2.736,5.973 4,9.04 1.097,2.659 2.201,5.326 3.297,7.986 h 0.896 c 0.193,0 1.625,-9.743 1.785,-10.645 0.664,-3.666 1.376,-7.323 2.136,-10.973 1.569,-7.571 3.337,-15.093 5.258,-22.584 0.36,-1.406 0.76,-2.731 1.264,-4.081 0.024,-0.072 0.056,-0.152 0.12,-0.192 0.04,-0.023 0.088,-0.039 0.136,-0.039 0.368,-0.032 0.696,0.239 0.928,0.527 0.232,0.287 0.44,0.623 0.768,0.79 0.545,0.28 1.209,0.016 1.753,-0.263 0.544,-0.28 1.192,-0.567 1.752,-0.328 1.048,0.447 2.073,0.967 3.097,1.486 0.344,0.175 0.776,0.255 1.096,0.471 0.28,0.191 0.472,0.463 0.776,0.647 0.224,0.135 0.448,0.263 0.705,0.303 0.216,0.032 0.44,0 0.64,0.08 0.112,0.04 0.216,0.112 0.312,0.176 0.864,0.567 1.936,0.455 1.792,1.693 -0.144,1.301 -0.56,2.563 -0.952,3.801 -0.176,0.559 -0.352,1.126 -0.52,1.685 -0.352,1.174 -0.696,2.356 -1.024,3.538 -0.713,2.563 -1.377,5.143 -2.001,7.73 -1.44,5.981 -2.681,12.011 -3.809,18.064 -1.328,7.147 -2.488,14.335 -3.545,21.53 -0.248,1.693 -0.656,3.338 -1.2,4.975 -0.048,0.144 -0.096,0.296 -0.2,0.408 -0.248,0.279 -0.672,0.263 -1.048,0.223 -0.032,0 -0.072,-0.008 -0.096,-0.032 -0.032,-0.032 -0.032,-0.08 -0.032,-0.128 0.112,-2.619 0.656,-5.262 0.976,-7.866 0.144,-1.174 0.296,-2.348 0.44,-3.513 0.064,-0.496 0.088,-1.023 0.192,-1.51 0.136,-0.647 0.416,-1.142 0.344,-1.829 -0.32,-0.071 -0.72,-0.551 -1.104,-0.215 -0.088,0.072 -0.136,0.184 -0.176,0.287 -0.032,0.072 -0.056,0.136 -0.088,0.208 -0.504,1.246 -1,2.627 -1.176,3.961 -0.16,1.198 -0.448,2.308 -0.769,3.498 -0.848,3.202 -1.568,6.436 -2.248,9.679 -0.08,0.383 -1.472,1.078 -1.808,1.277 -0.561,0.336 -1.145,0.639 -1.753,0.871 -0.576,0.223 -1.168,0.391 -1.784,0.471 -0.272,0.04 -0.632,-0.024 -0.873,0.136 -0.224,0.152 -0.216,0.487 -0.392,0.639 -0.04,0.032 -0.096,0.048 -0.152,0.056 -0.968,0.183 -1.952,-0.464 -2.848,-0.751 -0.224,-0.072 -1.289,-0.367 -1.377,-0.583 -0.24,-0.575 0.184,-1.134 0.184,-1.725 0,-0.591 0,-1.222 0,-1.837 v -2.164 c 0,-2.715 -6.001,-17.681 -18.004,-44.913 h -0.896 c -0.336,1.502 -0.656,3.003 -0.952,4.512 -1.161,5.83 -2.081,11.716 -2.897,17.601 -0.48,3.466 -0.912,6.94 -1.312,10.422 -0.216,1.869 -0.424,3.745 -0.624,5.614 0,1.31 -0.072,2.611 -0.072,3.921 0,0.136 0,0.272 -0.048,0.391 -0.12,0.304 -0.489,0.424 -0.793,0.535 -0.288,0.104 -0.568,0.24 -0.832,0.392 -0.112,0.064 -0.24,0.143 -0.368,0.112 -0.08,-0.016 -0.144,-0.072 -0.208,-0.112 -0.208,-0.128 -0.504,-0.144 -0.64,-0.352 -0.064,-0.087 -0.08,-0.199 -0.096,-0.303 -0.176,-1.054 -0.376,-0.495 -1.2,-0.559 -0.4,-0.032 -0.737,-0.367 -1.153,-0.184 -0.336,0.144 -0.464,0.535 -0.552,0.895 -0.168,0.654 -0.304,1.317 -0.408,1.988 -0.08,0.527 -0.16,1.078 -0.496,1.493 -0.28,0.344 -1.04,0.567 -1.472,0.432 -0.488,-0.152 -0.656,-0.887 -0.825,-1.358 -0.464,-1.278 -0.704,-2.619 -0.88,-3.961 -0.168,-1.254 -0.256,-2.523 -0.312,-3.785 -0.024,-0.559 0.328,-3.482 -0.952,-2.444 -0.04,0.032 -0.072,0.072 -0.072,0.12 0,0.16 0.072,0.367 0.072,0.559 v 5.566 c 0,0.463 0.136,1.15 0,1.597 -0.16,0.527 -0.376,0.264 -0.816,0.04 -0.488,-0.247 -1.553,-0.16 -1.561,-0.806 -0.008,-1.142 -0.376,-2.189 -0.392,-3.338 0,-0.408 0.064,-0.839 0.064,-1.254 0.048,-5.758 0.528,-11.516 1.289,-17.226 0.872,-6.54 2.112,-13.033 3.6,-19.469 0.881,-3.802 1.841,-7.587 2.881,-11.348 0.52,-1.885 1.056,-3.762 1.609,-5.63 0.272,-0.935 0.552,-1.869 0.84,-2.803 0.28,-0.919 0.48,-1.885 1.544,-2.045 0.816,-0.12 1.64,-0.207 2.465,-0.311 0.712,0 1.48,-0.184 2.184,-0.272 0.552,-0.072 1.064,-0.263 1.569,-0.104 z M 426.48,281.22 c -0.504,1.813 -0.896,3.61 -1.264,5.463 -0.272,1.373 -0.489,2.763 -0.705,4.144 -0.016,0.12 -0.04,0.232 -0.024,0.352 0.04,0.455 0.473,0.766 0.865,1.006 0.048,0 0.08,-0.056 0.088,-0.112 0.368,-1.972 0.672,-3.961 1.152,-5.902 0.24,-0.958 0.464,-1.916 0.728,-2.874 0.128,-0.48 0.264,-0.951 0.408,-1.422 0.12,-0.399 0.464,-0.998 0.464,-1.405 0.224,-0.615 0.52,-1.294 1.137,-1.534 0.136,-0.056 0.28,-0.088 0.392,-0.175 0.128,-0.104 0.176,-0.272 0.224,-0.432 0.088,-0.295 0.176,-0.583 0.264,-0.878 0.12,-0.399 0.24,-0.815 0.128,-1.214 -0.136,-0.495 -0.776,-0.623 -0.888,-1.158 -0.04,-0.176 0.016,-0.359 0,-0.535 -0.016,-0.208 -0.128,-0.407 -0.305,-0.519 -1.408,1.829 -1.848,4.296 -2.456,6.469 -0.072,0.247 -0.136,0.487 -0.2,0.734 z"
       fill="#f3f3f3"
       id="path13" />
    <path
       d="m 491.703,238.793 c -4.841,-0.391 -10.898,-1.613 -14.795,-4.648 -2.001,-1.557 -3.617,-3.553 -5.202,-5.534 -4.945,-6.141 -9.586,-13.648 -16.715,-17.521 -1.489,-0.806 -3.161,-1.23 -4.609,-2.092 -9.059,-4.52 -12.411,-10.47 -16.884,-19.039 -1.321,-2.531 -2.809,-6.404 -5.114,-8.217 -1.816,-1.429 -4.201,-1.326 -6.281,-2.308 -1.216,-0.575 -2.313,-1.501 -3.649,-1.709 -1.656,-0.255 -3.241,0.663 -4.665,1.541 -4.305,2.66 -5.897,2.987 -10.675,3.442 -5.409,0.519 -10.042,3.394 -14.355,6.493 -3.993,2.875 -7.994,5.75 -11.987,8.617 -3.345,2.403 -4.145,3.569 -7.794,2.835 -2.592,-0.528 -5.033,-1.67 -7.729,-2.077 -2.105,-0.319 -4.729,-1.413 -6.778,-1.469 -1.16,-0.032 -2.24,0.543 -3.233,1.142 -5.849,3.538 -9.658,9.239 -15.427,12.993 -1.337,0.87 -2.465,2.02 -3.577,3.154 -3.097,3.163 -7.386,9.679 -11.667,11.244 -1.752,0.639 -3.817,-0.223 -5.705,0.4 -3.793,1.245 -6.234,4.328 -9.146,6.86 -0.096,0.079 -0.48,0.399 -0.585,0.479 -0.208,0.159 -0.416,0.319 -0.624,0.471 0.016,-0.008 -0.184,0.12 -0.392,0.255 -0.152,-0.048 -0.304,-0.095 -0.456,-0.159 -0.056,-0.032 -0.128,-0.072 -0.216,-0.128 -1.296,-0.775 -2.496,-1.581 -3.561,-2.524 -3.16,-2.795 -7.265,-5.694 -9.93,-8.936 -0.352,-0.431 -0.688,-0.902 -1.176,-1.158 -0.44,-0.231 -0.953,-0.263 -1.449,-0.303 -4.977,-0.439 -10.858,-2.803 -15.363,-4.936 -4.081,-1.932 -11.059,-5.901 -13.019,-10.126 -0.696,-1.493 0.192,-3.585 -1.649,-4.336 -2.544,-1.03 -5.809,-4.799 -8.466,-4.72 -0.712,0.024 -1.352,0.4 -1.96,0.767 -2.753,1.661 -5.93,3.362 -8.354,5.47 -1.368,1.19 -2.393,2.684 -3.553,4.065 -2.465,2.939 -4.569,4.919 -7.37,6.804 -0.104,0.072 -0.184,0.12 -0.248,0.168 -0.312,0.168 -0.64,0.327 -0.96,0.479 -0.288,0.136 -0.576,0.248 -0.872,0.367 -0.08,0.024 -0.168,0.056 -0.224,0.064 -0.208,0.04 -1.2,0.192 -0.944,0.176 -0.144,0.016 -0.529,0.04 -0.697,0.032 -0.256,-0.016 -0.504,-0.032 -0.76,-0.064 -1.84,-0.391 -3.233,-1.382 -5.113,-1.893 -2.737,-0.734 -5.713,-0.335 -8.37,0.503 -4.089,1.294 -7.85,3.394 -11.387,5.782 -3.024,2.045 -5.905,4.297 -8.986,6.269 -0.496,0.32 -1,0.623 -1.504,0.919 -0.16,0.079 -0.832,0.455 -0.888,0.487 -0.24,0.119 -0.48,0.231 -0.72,0.351 -0.817,0.383 -1.641,0.751 -2.473,1.094 -0.384,0.16 -0.792,0.296 -1.184,0.455 -0.12,0.04 -0.232,0.08 -0.352,0.112 -0.977,0.304 -1.969,0.567 -2.977,0.791 0.016,0.016 -0.104,0.048 -0.488,0.104 -0.088,0.016 -0.184,0.023 -0.272,0.039 -0.04,0.016 -0.08,0.024 -0.112,0.04 0.024,-0.016 0.048,-0.024 0.08,-0.032 -0.416,0.064 -0.832,0.128 -1.249,0.176 -1.312,0.16 -2.624,0.264 -3.944,0.32 -0.313,0.016 -0.625,0.024 -0.929,0.032 -0.032,0 -0.056,0 -0.08,0 -0.76,0 -1.512,0 -2.272,-0.024 -5.45,-0.12 -10.835,-0.599 -16.3,-1.126 -4.337,-0.416 -4.729,3.05 -8.074,4.623 -0.432,0.2 -0.992,0.48 -0.904,0.943 0.04,0.215 0.224,0.367 0.4,0.495 4.225,3.018 13.779,2.404 18.796,2.627 6.962,0.312 14.044,-0.088 20.701,-2.276 6.146,-2.028 11.747,-5.806 16.66,-9.918 5.681,-4.76 10.643,-9.152 18.22,-7.06 8.85,2.436 15.908,0.471 22.334,-5.925 3.168,-3.155 4.433,-5.447 8.161,-1.526 2.705,2.843 5.282,5.742 8.546,7.978 4.418,3.035 9.875,4.209 15.148,4.936 3.913,0.543 7.97,2.108 11.547,3.553 9.778,3.969 13.635,18.791 26.198,10.861 1.696,-1.07 3.201,-2.436 4.705,-3.753 0.264,-0.232 0.528,-0.463 0.792,-0.695 0.16,-0.144 0.264,-0.232 0.328,-0.296 0.08,-0.047 0.168,-0.111 0.304,-0.199 0.224,-0.144 0.44,-0.296 0.68,-0.439 -0.048,0.055 0.008,0.055 0.121,0.024 1.6,0.327 3.232,0.255 4.825,-0.168 1.896,-0.495 3.432,-1.414 4.889,-2.675 3.649,-3.147 6.577,-6.453 9.65,-10.166 3.937,-4.768 7.442,-10.438 12.987,-13.824 7.17,-4.376 9.274,3.721 16.18,4.376 3.417,0.328 6.777,-1.078 9.538,-2.955 4.217,-2.866 8.202,-6.053 11.899,-9.567 2.16,-2.052 4.833,-4.312 7.57,-5.933 5.321,-3.147 13.259,-2.915 19.244,-3.442 0.672,-0.056 1.36,-0.12 2.025,0.008 1.864,0.359 3.112,2.06 4.249,3.578 5.681,7.594 13.883,15.38 21.517,21.018 4.449,3.283 10.266,4.465 13.795,8.625 6.321,7.459 12.483,16.803 20.685,22.321 4.737,3.178 10.674,4.632 14.283,-0.959 0.688,-1.07 4.313,-3.378 2.593,-4.528 -0.368,-0.247 -0.84,-0.279 -1.281,-0.311 -0.336,-0.024 -0.664,-0.048 -0.992,-0.072 z M 211.342,220.617 c 0,0 0,0 0.008,0 -0.153,0.056 -0.129,0.04 -0.008,0 z m 0.992,-0.327 c 0,0 0.048,0 0.056,0.008 0,0 -0.032,-0.008 -0.056,-0.008 z m 10.586,-5.167 c 0,0 0,0 -0.008,0 0.344,0.072 0.352,0.08 0.008,0 z m 1.465,0.024 c 0.056,0 0.144,-0.016 0.264,-0.024 -0.24,0.024 -0.48,0.048 -0.721,0.08 0.281,-0.032 0.417,-0.048 0.457,-0.056 z m 1.312,-0.304 c 0.136,-0.047 0.192,-0.071 0,0 z m 77.994,19.135 c 0.176,0.079 0.312,0.183 0,0 z m 15.5,-6.876 c -0.152,0.136 -0.296,0.263 -0.448,0.399 -1.033,0.91 -0.632,0.24 0.448,-0.399 z m 38.129,-21.067 c -0.176,0.048 -0.304,0.088 -0.384,0.112 0.128,-0.032 0.256,-0.072 0.384,-0.112 z m 0.016,-0.008 c 0,0 0.008,0 0.016,0 0,0 -0.008,0 -0.016,0 z m 0.016,0 c 0,0 0.016,0 0.024,0 -0.008,0 -0.016,0 -0.024,0 z m -0.136,0.008 c -0.104,0 -0.08,0 0,0 z m 14.171,-2.579 c 0.24,0.055 0.424,0.159 0.52,0.311 -0.016,-0.024 -0.296,-0.192 -0.52,-0.311 z m 29.887,-13.081 c -0.104,0.04 -0.088,0.032 0,0 z m 5.737,-6.109 c -0.184,0.183 -0.352,0.359 -0.344,0.423 0,-0.2 0.128,-0.328 0.344,-0.423 z m 7.738,1.708 c -0.232,-0.239 -0.2,-0.055 0,0 z"
       fill="#f3f3f3"
       id="path14" />
    <path
       d="m 401.834,190.167 c 0.048,0 0.096,0 0.152,-0.008 -0.016,-0.008 -0.032,-0.016 -0.04,-0.024 -0.032,0.008 -0.072,0.024 -0.104,0.032 z"
       fill="#f3f3f3"
       id="path15" />
    <path
       d="m 178.926,229.985 c 0,0 0.008,0 0.016,0 -0.032,-0.024 -0.504,0.023 -0.8,0.143 0.008,0 0.024,0 0.032,0 0.224,-0.072 0.544,-0.096 0.752,-0.136 z"
       fill="#f3f3f3"
       id="path16" />
    <path
       d="m 357.624,206.051 c 0,0 0.024,0.008 0.032,0.016 -0.016,0 -0.032,-0.016 -0.04,-0.024 z"
       fill="#f3f3f3"
       id="path17" />
    <path
       d="m 214.598,188.249 c -0.016,0.072 -0.024,0.152 0,0.2 0.08,0.24 0.481,0.136 0.537,0.359 0.128,0.519 -0.064,1.094 -0.208,1.59 -0.072,0.239 -0.121,0.511 -0.217,0.742 -0.096,0.232 -0.312,0.423 -0.392,0.679 -0.088,0.272 -0.032,0.583 -0.04,0.87 -0.008,0.296 -0.056,0.591 -0.072,0.895 -0.024,0.663 0.112,1.318 0.304,1.956 0.192,0.639 0.649,1.039 1.241,1.31 0.288,0.128 0.568,0.296 0.864,0.399 0.728,0.248 1.568,0.416 2.336,0.392 l 0.104,1.501 c 0.913,1.07 0.169,2.42 -0.08,3.594 -0.24,1.15 -0.296,2.172 -0.784,3.29 -0.448,1.006 -0.784,1.869 -1.184,2.883 -0.176,0.447 -0.648,1.118 -0.72,1.541 -0.064,0.375 -0.032,0.783 -0.064,1.158 -0.064,0.623 -0.072,1.374 -0.04,2.028 0.008,0.2 0.096,0.935 0.168,1.047 0.136,0.207 0.68,0.351 0.928,0.375 0.384,0.04 0.768,0.016 1.152,0.024 0.392,0 0.761,0.04 1.153,0.016 0.04,0 0.08,0 0.128,0 0.672,-0.04 1.256,-0.088 1.848,-0.423 0.064,-0.04 0.128,-0.08 0.152,-0.152 0.008,-0.032 0,-0.072 0,-0.112 -0.024,-0.239 0,-0.663 -0.168,-0.846 -0.152,-0.168 -0.416,-0.144 -0.616,-0.136 -0.44,0.016 -0.8,-0.208 -1.2,-0.36 -0.064,-0.023 -0.128,-0.047 -0.176,-0.095 -0.12,-0.112 -0.04,-0.264 -0.096,-0.408 -0.144,-0.351 -0.152,-0.551 -0.184,-0.766 l 5.177,-8.944 c 0.256,0.199 0.528,0.407 0.792,0.59 0.2,0.144 0.512,0.224 0.68,0.408 0.136,0.151 0.288,0.734 0.368,0.926 0.28,0.695 0.432,1.422 0.656,2.132 0.2,0.647 0.36,1.366 0.608,2.029 0.217,0.583 0.561,1.174 0.689,1.773 0.128,0.591 -0.024,1.397 0.24,2.012 0.048,0.104 0.16,0.367 0.296,0.375 0.04,0 0.08,-0.016 0.112,-0.032 0.328,-0.143 0.608,-0.335 0.928,-0.503 l -0.056,1.701 c -0.032,0.136 -0.064,0.28 -0.08,0.36 -0.08,0.279 -0.264,0.527 -0.376,0.798 l 1.128,0.088 c -0.104,-0.295 -0.176,-0.615 -0.224,-0.95 l 0.072,-2.156 c 0.216,-0.336 0.696,-0.096 1.112,-0.232 0.304,-0.096 1.017,-0.439 1.289,-0.615 0.216,-0.136 0.424,-0.279 0.632,-0.439 0.128,-0.096 0.256,-0.2 0.344,-0.335 0.016,-0.024 0.024,-0.048 0.024,-0.072 0,-0.032 -0.024,-0.056 -0.048,-0.08 -0.224,-0.232 -0.488,-0.639 -0.856,-0.575 -0.248,0.04 -0.416,0.271 -0.656,0.327 -0.657,0.152 -1.553,-0.207 -1.729,-0.886 l 0.512,-15.269 c 0.08,-0.304 0.256,-0.232 0.496,-0.423 0.16,-0.128 0.432,-0.456 0.481,-0.655 0.048,-0.2 -0.001,-0.463 -0.065,-0.647 -0.016,-0.048 -0.04,-0.104 -0.072,-0.152 -0.016,-0.024 -0.096,-0.064 -0.104,-0.08 -0.024,-0.064 0.048,-0.112 0.056,-0.175 0.008,-0.088 -0.04,-0.152 -0.088,-0.224 -0.016,-0.016 -0.024,-0.032 -0.04,-0.048 -0.024,-0.016 -0.048,-0.016 -0.08,-0.024 -0.088,-0.008 -0.176,-0.024 -0.256,-0.04 0.128,-0.12 0.136,-0.399 0.16,-0.559 0,-0.024 0,-0.048 0,-0.064 -0.008,-0.016 -0.024,-0.016 -0.04,-0.024 -0.248,-0.064 -0.512,-0.072 -0.768,-0.032 -0.336,0.048 -0.168,0.344 -0.288,0.575 -0.056,0.112 -0.152,0.176 -0.224,0.272 -0.072,0.088 -0.104,0.192 -0.16,0.287 -0.08,0.144 -0.2,0.432 -0.376,0.487 -0.104,0.032 -0.56,0.088 -0.68,0.088 -0.72,0.008 -0.544,0.04 -1.144,0.168 -0.337,0.072 -0.689,0.048 -1.025,0.088 -0.344,0.04 -0.584,0.215 -0.888,-0.04 -0.072,-0.064 -0.096,-0.152 -0.104,-0.248 -0.064,-0.638 0.08,-1.445 0.184,-2.076 0.096,-0.623 0.088,-1.238 0.112,-1.861 0.008,-0.327 -0.176,-0.551 -0.192,-0.838 0,-0.104 0.224,-0.671 0.272,-0.711 0.16,-0.112 0.44,-0.08 0.624,-0.104 0.168,-0.024 0.504,-0.072 0.584,-0.239 0.048,-0.096 0.024,-0.184 0.048,-0.28 0.032,-0.128 0.12,-0.255 0.184,-0.367 0.016,-0.032 0.032,-0.064 0.04,-0.096 0,-0.04 0,-0.072 0,-0.112 0,-0.16 0.008,-0.295 0.097,-0.423 0.064,0.016 0.128,0.016 0.192,0.032 0.072,0.016 0.216,0.04 0.288,0.016 0.04,-0.016 0.048,-0.064 0.056,-0.104 0.016,-0.16 0.024,-0.327 0.008,-0.487 0,-0.104 -0.04,-0.264 0.008,-0.359 0.064,-0.112 0.136,-0.048 0.256,-0.024 0.224,0.047 0.464,0.047 0.68,-0.048 0.144,-0.064 0.568,-0.472 0.504,-0.631 -0.168,-0.376 -1.08,-0.439 -1.416,-0.623 -0.2,-2.052 -2.833,-2.22 -3.961,-0.767 -0.408,0.519 -0.4,1.118 -0.328,1.741 0.032,0.304 0.072,0.599 0.048,0.903 -0.008,0.143 -0.024,0.335 -0.088,0.471 -0.064,0.135 -0.28,0.311 -0.432,0.319 -0.153,0 -0.321,-0.16 -0.441,0 -0.048,0.056 -0.016,0.104 -0.088,0.152 -0.048,0.032 -0.16,0.04 -0.216,0.032 -0.088,-0.008 -0.168,-0.056 -0.256,-0.088 -0.128,-0.048 -0.28,-0.048 -0.384,-0.136 -0.136,-0.112 -0.136,-0.287 -0.16,-0.447 -0.168,-1.126 -0.392,-2.244 -0.776,-3.306 -0.016,-0.048 -0.032,-0.096 -0.064,-0.136 -0.024,-0.032 -0.064,-0.064 -0.104,-0.088 -0.2,-0.136 -0.416,-0.239 -0.648,-0.311 -0.128,-0.04 -0.232,-0.136 -0.36,-0.184 -0.168,-0.064 -0.344,-0.112 -0.52,-0.16 -0.192,-0.055 -0.393,-0.103 -0.577,-0.167 -0.12,-0.04 -0.288,-0.152 -0.408,-0.168 -0.312,-0.04 -0.584,0.128 -0.816,0.319 -0.176,0.144 -0.136,0.288 -0.408,0.312 -0.176,0.016 -0.376,-0.072 -0.552,-0.016 -0.928,0.287 -1.816,5.039 -1.937,5.782 -0.032,0.199 -0.04,0.391 -0.056,0.591 0,0.048 -0.016,0.111 -0.032,0.175 z m 13.26,7.747 c 0,0 -1.777,3.066 -1.801,3.114 -0.48,-0.719 -1.384,-1.054 -1.176,-2.02 0.056,-0.256 0.24,-0.416 0.36,-0.639 0.136,-0.256 0.208,-0.559 0.312,-0.823 0.056,-0.135 0.176,-0.239 0.216,-0.367 0.024,-0.08 -0.016,-0.16 0,-0.208 0.008,-0.032 0.04,-0.048 0.12,-0.04 0.248,0.032 0.368,0.248 0.56,0.368 0.36,0.223 0.824,0.343 1.209,0.527 0.08,0.04 0.16,0.048 0.2,0.08 z m -1.457,3.442 1.913,-3.307 c 0.144,0 0.304,0.088 0.44,0.072 0.2,-0.032 0.28,-0.295 0.488,-0.351 0.048,-0.016 0.096,-0.024 0.136,-0.056 0.04,-0.04 0.056,-0.096 0.072,-0.144 0.032,-0.088 0.088,-0.159 0.136,-0.231 0.208,-0.344 -0.184,-0.695 -0.424,-0.903 -0.128,-0.112 -0.328,-0.056 -0.176,-0.343 0.08,-0.144 0.232,-0.248 0.4,-0.28 0.104,-0.024 0.208,-0.016 0.312,-0.016 0.216,0 0.424,-0.032 0.632,-0.04 0.008,0 0.024,0 0.032,0 0.032,0 0.056,0 0.072,0 l -0.464,13.888 c -0.248,-0.895 -0.248,-1.27 -0.368,-1.845 -0.144,-0.711 -0.4,-1.397 -0.48,-2.116 -0.032,-0.248 -0.296,-0.791 -0.448,-0.982 -0.104,-0.136 -0.208,-0.272 -0.32,-0.408 -0.256,-0.327 -0.488,-0.702 -0.753,-0.998 -0.184,-0.215 -0.352,-0.447 -0.52,-0.679 -0.128,-0.175 -0.824,-0.998 -0.68,-1.245 z m -6.953,9.423 c 0.248,-0.439 0.504,-0.879 0.68,-1.342 0.176,-0.463 0.368,-0.902 0.704,-1.269 0.12,-0.136 0.264,-0.256 0.336,-0.432 0.112,-0.303 0.152,-0.607 0.288,-0.918 0.16,-0.359 0.392,-0.679 0.576,-1.03 0.24,-0.455 0.464,-0.919 0.736,-1.366 0.112,-0.184 0.224,-0.695 0.488,-0.719 0.313,-0.032 0.585,0.424 0.745,0.615 0.024,0.032 0.056,0.072 0.088,0.104 l -5.05,8.737 c -0.16,-0.072 -0.088,-0.927 -0.08,-1.078 0.04,-0.464 0.257,-0.887 0.489,-1.302 z"
       fill="#f3f3f3"
       id="path18" />
  </g>
  <defs
     id="defs61">
    <clipPath
       id="clip0_458_15403">
      <rect
         width="410"
         height="267"
         fill="#ffffff"
         transform="translate(119,117)"
         id="rect61"
         x="0"
         y="0" />
    </clipPath>
  </defs>
</svg>
